<?xml version="1.0" standalone="no"?>
<!DOCTYPE svg PUBLIC "-//W3C//DTD SVG 20010904//EN"
 "http://www.w3.org/TR/2001/REC-SVG-20010904/DTD/svg10.dtd">
<svg version="1.0" xmlns="http://www.w3.org/2000/svg"
 width="550.000000pt" height="301.000000pt" viewBox="0 0 550.000000 301.000000"
 preserveAspectRatio="xMidYMid meet">
<metadata>
Created by potrace 1.16, written by Peter Selinger 2001-2019
</metadata>
<g transform="translate(0.000000,301.000000) scale(0.100000,-0.100000)"
fill="#000000" stroke="none">
<path d="M2793 2422 c-3 -13 -17 -23 -37 -28 -86 -18 -173 -99 -196 -179 -14
-52 -10 -61 18 -46 34 18 79 13 110 -14 29 -24 30 -24 46 -6 10 11 26 21 37
24 18 5 19 -1 19 -78 l0 -82 -36 -6 c-48 -8 -112 -40 -160 -80 -31 -27 -51
-35 -97 -41 -114 -13 -180 -70 -175 -151 l3 -40 53 -3 c45 -3 54 -7 66 -31 15
-28 53 -51 86 -51 23 0 80 47 80 66 0 11 29 14 160 14 131 0 160 -3 160 -14 0
-19 57 -66 80 -66 33 0 71 23 86 52 12 23 21 28 53 28 70 0 71 2 71 106 l0 94
-51 0 c-44 0 -54 4 -75 30 -37 43 -140 91 -213 97 l-61 6 0 78 c0 44 3 79 8
79 4 0 22 -9 41 -21 31 -19 35 -19 51 -4 28 26 95 31 126 10 l26 -17 -7 34
c-21 100 -91 178 -187 206 -32 9 -58 22 -58 29 0 22 -21 25 -27 5z m88 -63
c50 -16 105 -62 129 -110 l20 -39 -31 0 c-17 0 -46 -7 -65 -16 -31 -15 -37
-15 -68 0 -43 20 -76 20 -119 0 -31 -15 -36 -15 -65 0 -17 9 -45 16 -63 16
-35 0 -35 10 3 66 53 78 160 112 259 83z m-11 -419 l0 -50 -130 0 c-76 0 -130
4 -130 10 0 13 82 60 133 75 23 8 61 14 85 14 l42 1 0 -50z m320 -150 l0 -70
-45 0 c-25 0 -45 5 -45 10 0 24 -50 60 -83 60 -34 0 -87 -36 -87 -60 0 -6 -55
-10 -160 -10 -105 0 -160 4 -160 10 0 24 -53 60 -87 60 -33 0 -83 -36 -83 -60
0 -5 -20 -10 -45 -10 -43 0 -45 1 -45 29 0 17 10 42 23 56 44 51 72 54 460 55
l357 0 0 -70z"/>
<path d="M3993 1440 c-47 -21 -54 -35 -23 -43 19 -5 20 -14 20 -171 0 -155 -1
-167 -20 -178 -34 -21 -23 -28 44 -28 64 0 95 13 56 23 -19 5 -20 14 -20 211
0 113 -3 206 -7 205 -5 0 -27 -9 -50 -19z"/>
<path d="M320 1391 c0 -5 9 -11 20 -14 19 -5 20 -14 20 -165 0 -152 -1 -161
-20 -167 -43 -14 -16 -25 60 -25 75 0 105 11 60 23 -19 5 -20 14 -20 167 0
153 1 162 20 167 45 12 15 23 -60 23 -44 0 -80 -4 -80 -9z"/>
<path d="M3048 1342 c-44 -152 -100 -291 -119 -297 -40 -13 -16 -25 51 -25 40
0 70 4 70 10 0 6 -8 10 -18 10 -36 0 -41 19 -20 81 l20 60 57 -3 56 -3 22 -55
c23 -58 18 -80 -18 -80 -11 0 -19 -4 -19 -10 0 -6 37 -10 90 -10 90 0 110 8
68 27 -18 8 -36 46 -84 179 l-60 169 -40 3 -39 3 -17 -59z"/>
<path d="M4460 1270 c-30 -27 -39 -40 -27 -40 15 0 17 -11 17 -85 0 -72 3 -88
20 -105 28 -28 71 -26 100 5 27 28 22 43 -8 24 -40 -25 -52 -6 -52 81 l0 80
40 0 c33 0 40 3 40 20 0 17 -7 20 -41 20 -36 0 -40 2 -34 20 10 30 -6 24 -55
-20z"/>
<path d="M560 1258 c-41 -19 -43 -21 -22 -29 20 -8 22 -15 22 -89 0 -69 -3
-82 -20 -92 -34 -22 -23 -28 50 -28 73 0 84 6 50 28 -19 11 -21 21 -18 89 l3
77 39 15 c37 14 40 14 57 -8 28 -35 27 -156 -1 -173 -35 -22 -22 -28 55 -28
77 0 92 8 53 25 -20 9 -23 19 -25 70 -6 124 -20 155 -74 155 -16 0 -48 -9 -69
-20 l-40 -20 0 25 c0 29 -1 30 -60 3z"/>
<path d="M1926 1259 c-37 -20 -38 -21 -17 -35 18 -13 21 -25 21 -89 0 -64 -3
-77 -20 -87 -34 -21 -23 -28 44 -28 64 0 95 13 56 23 -18 5 -20 14 -20 86 0
80 0 81 31 97 58 30 89 -6 89 -100 0 -48 -10 -75 -31 -81 -38 -12 -6 -25 62
-25 67 0 90 12 49 25 -23 7 -23 6 -24 100 -2 120 -44 152 -136 105 l-40 -20 0
25 c0 30 -12 31 -64 4z"/>
<path d="M3371 1256 c-38 -20 -41 -24 -22 -29 19 -5 21 -12 21 -90 0 -77 -2
-86 -20 -92 -41 -13 -18 -25 50 -25 73 0 84 6 50 28 -17 10 -20 23 -20 86 l0
73 40 18 c39 17 41 17 60 0 17 -15 20 -31 20 -91 0 -63 -3 -76 -20 -86 -35
-22 -22 -28 55 -28 77 0 92 8 53 25 -20 9 -23 18 -26 80 -1 39 -4 80 -7 92
-13 55 -67 68 -135 33 l-40 -20 0 25 c0 30 -3 30 -59 1z"/>
<path d="M908 1260 c-51 -31 -40 -94 25 -138 46 -30 62 -74 32 -86 -22 -8 -52
9 -60 34 -10 31 -25 23 -25 -13 0 -34 0 -34 51 -36 116 -4 143 88 45 148 -44
28 -58 45 -50 65 9 24 41 19 60 -9 22 -34 36 -31 32 8 -3 30 -5 32 -48 34 -25
2 -53 -2 -62 -7z"/>
<path d="M1095 1256 c-24 -10 -26 -13 -12 -19 14 -5 17 -21 17 -96 0 -68 4
-93 16 -105 20 -20 71 -20 118 -1 32 14 36 14 36 0 0 -19 1 -19 50 1 44 18 50
29 20 37 -18 5 -20 14 -20 101 0 105 0 105 -60 85 -27 -10 -30 -13 -16 -21 13
-7 16 -26 16 -88 0 -68 -3 -81 -19 -90 -60 -32 -81 -1 -81 116 0 104 -3 107
-65 80z"/>
<path d="M1438 1252 c-39 -17 -49 -32 -23 -32 12 0 15 -16 15 -86 0 -77 -2
-86 -20 -91 -11 -3 -17 -9 -14 -14 7 -13 154 -11 154 1 0 6 -6 10 -14 10 -30
0 -46 30 -46 89 0 73 16 96 58 88 25 -5 34 -2 42 13 9 17 7 22 -15 32 -22 10
-29 8 -55 -17 l-30 -29 0 27 c0 31 -2 31 -52 9z"/>
<path d="M1664 1251 c-36 -22 -52 -61 -26 -61 23 0 37 11 51 38 9 17 19 22 39
20 25 -3 27 -7 27 -47 l0 -45 -59 -23 c-64 -24 -76 -35 -76 -70 0 -41 74 -58
118 -27 20 14 23 14 28 0 9 -23 39 -19 71 9 26 23 27 24 7 25 -20 0 -22 6 -25
86 -3 71 -7 88 -23 100 -28 20 -95 17 -132 -5z"/>
<path d="M2308 1255 c-37 -21 -58 -64 -58 -121 0 -39 5 -51 34 -80 27 -27 42
-34 71 -34 42 0 105 34 105 56 0 16 -16 19 -25 3 -11 -16 -51 -28 -74 -22 -44
11 -66 100 -39 158 15 32 50 42 80 21 34 -24 60 -21 56 7 -3 20 -9 22 -63 24
-39 2 -70 -3 -87 -12z"/>
<path d="M2562 1254 c-33 -23 -52 -67 -52 -121 1 -101 96 -146 183 -87 47 32
41 43 -11 20 -29 -13 -44 -15 -64 -7 -29 11 -58 57 -58 91 0 19 6 20 86 20
l86 0 -6 28 c-15 63 -108 95 -164 56z"/>
<path d="M3721 1241 c-35 -32 -40 -51 -13 -51 21 0 34 9 48 35 14 25 47 31 63
11 7 -8 11 -29 9 -47 -3 -30 -8 -35 -68 -58 -56 -23 -65 -30 -68 -54 -2 -16 2
-35 9 -43 15 -19 74 -18 104 2 23 15 25 15 31 0 8 -22 30 -20 65 5 35 24 37
36 7 35 -22 -1 -23 3 -26 79 -4 98 -16 115 -82 115 -39 0 -54 -5 -79 -29z"/>
<path d="M4111 1250 c15 -11 47 -65 79 -134 50 -110 52 -117 39 -148 -7 -18
-26 -46 -43 -61 -20 -19 -26 -31 -19 -38 30 -30 47 -3 121 181 45 113 82 192
95 202 22 17 21 18 -35 18 -32 0 -58 -4 -58 -10 0 -5 6 -10 14 -10 28 0 28
-22 1 -96 -15 -41 -28 -74 -30 -74 -4 0 -75 151 -75 160 0 4 10 12 23 18 18 9
7 11 -58 11 l-80 0 26 -19z"/>
<path d="M4655 1248 c-37 -20 -38 -21 -17 -29 20 -8 22 -15 22 -88 0 -71 -2
-80 -20 -86 -41 -13 -18 -25 50 -25 73 0 84 6 50 28 -18 11 -20 23 -20 117 0
117 0 117 -65 83z"/>
<path d="M4860 1253 c-37 -25 -48 -44 -55 -88 -17 -111 86 -183 175 -122 35
23 50 47 30 47 -6 0 -23 -9 -39 -20 -30 -23 -64 -17 -91 15 -20 24 -18 107 3
139 20 29 57 35 77 11 14 -17 46 -20 55 -5 24 39 -106 57 -155 23z"/>
<path d="M5087 1250 c-44 -35 -36 -65 30 -127 48 -44 56 -56 47 -70 -18 -28
-33 -26 -64 7 -35 37 -45 35 -36 -8 6 -26 11 -29 52 -30 69 -3 104 20 104 69
0 26 -31 61 -83 94 -34 22 -34 58 0 63 16 2 26 -4 35 -22 16 -36 30 -32 26 7
-3 30 -6 32 -44 35 -29 2 -47 -3 -67 -18z"/>
</g>
</svg>
